<svg width="370" height="300" xmlns="http://www.w3.org/2000/svg">

 <g>
  <title>background</title>
  <rect fill="none" id="canvas_background" height="302" width="372" y="-1" x="-1"/>
 </g>
 <g>
  <title>Layer 1</title>
  <path stroke="null" transform="rotate(-90 185.0000152587891,150.00001525878906) " fill="#ffffff" id="path1312" d="m125.858871,257.61519l-58.808898,-77.148917l0,-49.052519c0,-26.978893 0.223229,-49.052527 0.496075,-49.052527c0.27284,0 20.064869,25.672484 43.982289,57.049964c24.396383,32.005842 43.992193,57.049964 44.638829,57.049964c1.090959,0 1.161564,-6.185193 1.319749,-115.612617l0.167133,-115.612608l27.675427,0l27.675427,0l0.16714,115.180411c0.158191,109.016085 0.228823,115.18042 1.319762,115.18042c0.646557,0 20.100959,-24.858528 44.30934,-56.617767c23.736192,-31.139772 43.379953,-56.617767 43.652806,-56.617767c0.272847,0 0.496089,22.069338 0.496089,49.042967l0,49.042967l-58.805267,77.158469c-32.342894,42.43716 -58.956408,77.158469 -59.141128,77.158469c-0.184727,0 -26.799875,-34.717012 -59.144772,-77.148908z"/>
 </g>
</svg>